<svg xmlns:xlink="http://www.w3.org/1999/xlink" xmlns="http://www.w3.org/2000/svg" viewBox="0 0 24 24" class="" height="30" width="65"><path fill-rule="evenodd" d="M20.555 14.205a2.22 2.22 0 0 1-1.014 2.882l-.006.004-3.211 1.6a1.16 1.16 0 0 1-1.313-.184 1.2 1.2 0 0 1-.27-.374l-1.495-3.27a2.216 2.216 0 0 1 1.02-2.884 2.1 2.1 0 0 1 1.65-.107 2.11 2.11 0 0 1 1.216 1.118l.176.39.379-.189a2.1 2.1 0 0 1 2.868 1.014m-4.593 2.99 2.897-1.444a.717.717 0 0 0 .328-.931h-.001a.6.6 0 0 0-.348-.322.6.6 0 0 0-.472.031l-1.085.54a.75.75 0 0 1-1.017-.362l-.5-1.1a.61.61 0 0 0-.348-.32.59.59 0 0 0-.472.031.7.7 0 0 0-.351.4.7.7 0 0 0 .019.525zM8.62 5.89l.137-.202a3.3 3.3 0 0 1 2.644-1.437 3.3 3.3 0 0 1 2.711 1.305 3.3 3.3 0 0 1 .102 3.85l-3.407 5.212a.75.75 0 0 1-1.064.199l-5.055-3.616a3.302 3.302 0 0 1 3.728-5.45zm1.36 7.253 2.988-4.571c.214-.313.324-.684.316-1.063a1.81 1.81 0 0 0-1.02-1.581 1.8 1.8 0 0 0-2.268.606l-.562.822a.747.747 0 0 1-1.043.196l-.822-.563a1.804 1.804 0 0 0-2.749.99 1.8 1.8 0 0 0 .037 1.108c.128.356.365.663.678.876l4.444 3.18z" clip-rule="evenodd" fill="#333333"></path></svg>