<svg xmlns:xlink="http://www.w3.org/1999/xlink" xmlns="http://www.w3.org/2000/svg" viewBox="3 3 18 18" class="" height="30" width="65"><path fill-rule="evenodd" d="M12.75 5.6V4.535a.75.75 0 0 0-1.5 0V5.6a.75.75 0 0 0 1.5 0m4.305 2.407.755-.754a.75.75 0 1 0-1.061-1.061l-.755.755a.75.75 0 0 0 1.06 1.06zm1.345 4.745h1.066a.75.75 0 0 0 0-1.5H18.4a.75.75 0 0 0 0 1.5m-2.406 4.304.755.755a.75.75 0 0 0 1.06 0 .75.75 0 0 0 0-1.06l-.754-.755a.75.75 0 0 0-1.061 1.06M8.004 6.947l-.755-.755a.749.749 0 1 0-1.06 1.06l.754.755a.75.75 0 0 0 1.061-1.06M5.6 11.252H4.534a.75.75 0 0 0 0 1.5H5.6a.75.75 0 0 0 0-1.5m1.343 4.744-.754.754a.75.75 0 0 0 1.06 1.061l.755-.755a.75.75 0 0 0-1.061-1.06" clip-rule="evenodd" fill="#333333"></path><path fill-rule="evenodd" d="M9.117 16.106a5.016 5.016 0 1 1 5.766 0v1.226A2.886 2.886 0 0 1 12 20.216a2.883 2.883 0 0 1-2.883-2.884zm4.266.717a5 5 0 0 1-2.766 0v.51a1.38 1.38 0 0 0 2.361.978 1.38 1.38 0 0 0 .405-.979zm-4.9-4.822A3.516 3.516 0 1 1 15.514 12a3.516 3.516 0 0 1-7.031 0z" clip-rule="evenodd" fill="#333333"></path></svg>