<svg xmlns:xlink="http://www.w3.org/1999/xlink" xmlns="http://www.w3.org/2000/svg" viewBox="0 0 24 24" class="" height="30" width="65"><path fill-rule="evenodd" d="m8.943 8.653 1.928-3.824a1.265 1.265 0 0 1 1.79-.503c.2.122.36.296.467.503l.002.004 1.93 3.823 3.648.362a1.258 1.258 0 0 1 .782 2.148l-3.039 3.012 1.128 4.096a1.26 1.26 0 0 1-.425 1.305 1.26 1.26 0 0 1-1.36.15L12 17.849l-3.784 1.876a1.27 1.27 0 0 1-1.365-.148 1.26 1.26 0 0 1-.424-1.306l1.127-4.095-3.04-3.012a1.258 1.258 0 0 1 .77-2.148l3.66-.363zM12 5.923l-1.903 3.774a.75.75 0 0 1-.595.409l-3.569.353 2.988 2.96c.193.19.268.47.196.732l-1.1 3.999 3.65-1.81a.76.76 0 0 1 .666 0l3.658 1.813-1.1-4a.75.75 0 0 1 .194-.732l2.986-2.96-3.569-.353a.75.75 0 0 1-.595-.408z" clip-rule="evenodd" fill="#333333"></path><path fill-rule="evenodd" d="M7.915 6.135 6.309 4.53a.749.749 0 1 0-1.06 1.061l1.606 1.606a.75.75 0 0 0 1.06-1.06zm9.231 1.062 1.606-1.606a.75.75 0 0 0-1.06-1.06l-1.607 1.605a.75.75 0 0 0 1.061 1.06zm.812 8.773 1.418.947a.75.75 0 0 0 .832-1.248l-1.418-.946a.751.751 0 0 0-.832 1.248zM5.21 14.723l-1.418.946a.75.75 0 0 0 .832 1.248l1.418-.946a.75.75 0 0 0-.832-1.248" clip-rule="evenodd" fill="#333333"></path></svg>