<svg xmlns:xlink="http://www.w3.org/1999/xlink" xmlns="http://www.w3.org/2000/svg" viewBox="0 0 24 24" class="" height="30" width="65"><path fill-rule="evenodd" d="M11.25 4.89V4a.75.75 0 0 1 1.5 0v.89a7.15 7.15 0 0 1 6.361 6.36h.89a.75.75 0 0 1 0 1.5h-.89a7.15 7.15 0 0 1-6.36 6.361v.89a.75.75 0 0 1-1.5 0v-.89a7.15 7.15 0 0 1-6.362-6.36H4a.75.75 0 0 1 0-1.5h.89a7.15 7.15 0 0 1 6.36-6.362zm6.35 7.86h-1.722a3.94 3.94 0 0 1-1.085 2.043 3.94 3.94 0 0 1-2.042 1.086V17.6a5.65 5.65 0 0 0 4.85-4.85zm-11.2 0a5.65 5.65 0 0 0 4.85 4.85v-1.722a3.94 3.94 0 0 1-2.043-1.085 3.94 3.94 0 0 1-1.085-2.042H6.4zm4.85 1.582V12.75H9.668a2.44 2.44 0 0 0 1.582 1.582m3.082-1.582H12.75v1.582a2.44 2.44 0 0 0 1.582-1.582M12.75 6.4v1.722a3.95 3.95 0 0 1 3.128 3.128h1.723a5.65 5.65 0 0 0-4.85-4.85zm-1.5 0a5.646 5.646 0 0 0-4.85 4.85h1.722a3.945 3.945 0 0 1 3.129-3.128zm1.5 3.268v1.583h1.582a2.44 2.44 0 0 0-1.582-1.583m-1.5 0a2.44 2.44 0 0 0-1.582 1.583h1.583z" clip-rule="evenodd" fill="#333333"></path></svg>