<svg xmlns:xlink="http://www.w3.org/1999/xlink" xmlns="http://www.w3.org/2000/svg" viewBox="0 0 24 24" class="" height="30" width="65"><path fill-rule="evenodd" d="M12 20.75a8.75 8.75 0 1 0 0-17.5 8.75 8.75 0 0 0 0 17.5m0-1.5a7.25 7.25 0 1 1 0-14.5 7.25 7.25 0 0 1 0 14.5" clip-rule="evenodd" fill="#333333"></path><path fill-rule="evenodd" d="M9.386 8.852a1.018 1.018 0 1 1-.053-.001zm5.332 0a1.018 1.018 0 1 1-.052-.001zm.911 4.948a4.052 4.052 0 0 1-7.261 0 .75.75 0 1 0-1.344.666 5.552 5.552 0 0 0 9.949 0 .75.75 0 0 0-1.344-.666" clip-rule="evenodd" fill="#333333"></path></svg>