<svg xmlns:xlink="http://www.w3.org/1999/xlink" xmlns="http://www.w3.org/2000/svg" viewBox="0 0 24 24" class="" height="30" width="65"><path fill-rule="evenodd" d="m7.57 17.23-.002.021v.909a.75.75 0 0 1-1.5 0v-.909a1.66 1.66 0 0 1 1.658-1.658c.28 0 .567.121.846.477.144.186.338.518.831.796.546.31 1.418.544 2.863.544 3.524 0 4.698-3.133 4.698-4.699 0-3.625-2.384-6.145-5.606-6.145A1.66 1.66 0 0 1 9.7 4.908V4a.75.75 0 0 1 1.5 0v.908c0 .042.017.082.047.111.03.03.07.047.111.047 4.043 0 7.106 3.097 7.106 7.645 0 2.066-1.549 6.199-6.198 6.199-3.228 0-4.213-1.055-4.696-1.68" clip-rule="evenodd" fill="#333333"></path><path fill-rule="evenodd" d="M9.42 8.764a3.48 3.48 0 0 1-2.444-3.317v-.909a.75.75 0 0 1 1.5 0v.908a1.98 1.98 0 0 0 1.973 1.974h.909a.75.75 0 0 1 0 1.5h-.338c.45 2.126-.614 3.806-1.655 4.69-.603.511-1.225.747-1.61.758a3.033 3.033 0 0 0-2.911 2.901v.89a.75.75 0 0 1-1.5 0v-.938a4.53 4.53 0 0 1 4.353-4.352h.029c.05 0 .109-.037.182-.072.15-.075.318-.188.487-.33.795-.676 1.599-2.018 1.026-3.703z" clip-rule="evenodd" fill="#333333"></path><path d="M19.552 17.529a.16.16 0 0 0-.144.205l.003.01a1.66 1.66 0 0 1-1.277 2.078l-.666.132-.01.002a.75.75 0 0 1-.28-1.473l.665-.132.004-.001a.16.16 0 0 0 .12-.201l-.004-.012a1.66 1.66 0 0 1 1.543-2.107h.005a.16.16 0 0 0 .15-.18l-.08-.674-.002-.01a.75.75 0 0 1 1.491-.167l.08.674.001.01a1.66 1.66 0 0 1-1.594 1.846zM6.121 10.37a.223.223 0 0 0-.206.25l.001.011a1.723 1.723 0 0 1-1.71 1.922h-.627a.75.75 0 0 1 .01-1.5h.622a.222.222 0 0 0 .215-.25v-.012a1.72 1.72 0 0 1 1.644-1.92l.611-.024h.01a.75.75 0 0 1 .048 1.5l-.612.022z" fill="#333333"></path></svg>