<svg xmlns:xlink="http://www.w3.org/1999/xlink" xmlns="http://www.w3.org/2000/svg" viewBox="0 0 24 24" class="" height="30" width="65"><path fill-rule="evenodd" d="M8.115 8.298c-.463-.17-.772-.402-.979-.664-.253-.32-.375-.7-.375-1.159 0-1.305 1.03-3.225 5.457-3.225 4.428 0 5.456 1.922 5.456 3.226 0 .568-.155 1.027-.57 1.382 1.796.757 2.317 2.013 2.317 2.983 0 .5-.13.915-.408 1.266-.248.314-.629.586-1.212.782-.412.138-.95.243-1.644.316 2.891.918 3.711 2.825 3.711 4.324 0 .616-.14 1.133-.442 1.566-.29.42-.74.773-1.427 1.034-1.077.41-2.852.61-5.655.621h-.008l-1.456-.01c-2.452-.047-4.013-.277-4.965-.694-1.232-.54-1.665-1.357-1.665-2.514 0-1.614.953-3.707 4.426-4.524a5 5 0 0 1-.596-.18c-.525-.201-.869-.473-1.094-.784-.242-.338-.359-.732-.359-1.2 0-.8.355-1.796 1.488-2.546m4.226 10.952c2.537-.01 4.15-.151 5.124-.523.341-.13.584-.279.73-.488.134-.195.173-.434.173-.71 0-1.592-1.432-3.367-6.309-3.367-4.876 0-6.309 1.778-6.309 3.37 0 .308.048.567.222.771.208.245.555.407 1.053.546.868.24 2.122.357 3.875.392l1.441.01zM13.36 8.696l-.073.002h-.009l-1.029.012c-1.58.076-2.635.385-3.305.828-.585.387-.816.867-.816 1.306 0 .28.152.454.492.586.668.257 1.767.364 3.478.393l1.153.008c2.017-.008 3.298-.104 4.074-.364.41-.138.597-.313.597-.627 0-.438-.23-.917-.815-1.303-.73-.483-1.918-.806-3.747-.84zm-.012-1.5c1.01-.03 1.736-.1 2.245-.239.386-.105.582-.212.582-.48 0-.347-.18-.724-.63-1.029-.63-.427-1.68-.698-3.326-.698-1.645 0-2.695.271-3.326.698-.45.304-.63.681-.63 1.027 0 .228.146.343.444.441.667.22 1.77.295 3.51.295h.013a17 17 0 0 1 1.118-.015" clip-rule="evenodd" fill="#333333"></path></svg>