<svg xmlns:xlink="http://www.w3.org/1999/xlink" xmlns="http://www.w3.org/2000/svg" viewBox="0 0 24 24" class="" height="30" width="65"><path fill-rule="evenodd" d="M17.4 10.75H14a.75.75 0 0 1 0-1.5h5a.749.749 0 0 1 .576 1.23l-3.975 4.77h3.4a.75.75 0 0 1 0 1.5h-5a.749.749 0 0 1-.577-1.23zm-7.053-6H5a.75.75 0 0 1 0-1.5h7a.75.75 0 0 1 .564 1.244l-5.911 6.757H12a.75.75 0 0 1 0 1.5H5a.75.75 0 0 1-.564-1.244zm-.197 11H8a.75.75 0 0 1 0-1.5h3.75a.749.749 0 0 1 .576 1.23l-2.725 3.27h2.15a.75.75 0 0 1 0 1.5H8a.749.749 0 0 1-.577-1.23l2.725-3.27z" clip-rule="evenodd" fill="#333333"></path></svg>