<svg xmlns:xlink="http://www.w3.org/1999/xlink" xmlns="http://www.w3.org/2000/svg" viewBox="0 0 24 24" class="" height="30" width="65"><path fill-rule="evenodd" d="M14.356 17.55h-2.89a1.816 1.816 0 0 1-1.816-1.818V10.4a1.816 1.816 0 0 1 1.817-1.817h7.466a1.817 1.817 0 0 1 1.817 1.816v5.334a1.816 1.816 0 0 1-1.817 1.816h-.316V20a.75.75 0 0 1-1.281.53zm2.76.639v-1.39a.75.75 0 0 1 .75-.75h1.067a.31.31 0 0 0 .224-.092.31.31 0 0 0 .093-.225V10.4a.32.32 0 0 0-.317-.317h-7.466a.32.32 0 0 0-.317.316v5.334c0 .083.033.165.093.223.059.06.14.093.224.093h3.2c.199 0 .389.08.53.22z" clip-rule="evenodd" fill="#333333"></path><path fill-rule="evenodd" d="M5.383 12.217h-.316A1.816 1.816 0 0 1 3.25 10.4V5.067A1.816 1.816 0 0 1 5.067 3.25h7.466a1.816 1.816 0 0 1 1.817 1.817V7.2a.75.75 0 0 1-1.5 0V5.067a.31.31 0 0 0-.093-.224.31.31 0 0 0-.224-.093H5.067a.31.31 0 0 0-.224.093.31.31 0 0 0-.093.224V10.4a.316.316 0 0 0 .317.317h1.066c.415 0 .75.335.75.75v1.39l.853-.853a.75.75 0 1 1 1.06 1.06l-2.132 2.133a.75.75 0 0 1-1.281-.53z" clip-rule="evenodd" fill="#333333"></path></svg>