<svg xmlns:xlink="http://www.w3.org/1999/xlink" xmlns="http://www.w3.org/2000/svg" viewBox="0 0 24 24" class="" height="30" width="65"><path fill-rule="evenodd" d="M7.525 17.028v-.472a.75.75 0 0 1 1.5 0v.472h.473a.75.75 0 0 1 0 1.5h-.473V19a.75.75 0 0 1-1.5 0v-.473h-.473a.75.75 0 0 1 0-1.5zM17.211 5.73v-.473a.75.75 0 0 1 1.5 0v.472h.472a.75.75 0 0 1 0 1.5h-.472v.473a.75.75 0 0 1-1.5 0V7.23h-.473a.75.75 0 0 1 0-1.5zm-1.24 7.931a.749.749 0 1 1 1.5.005v.001c-.003.73.138 1.315.518 1.71.383.4.985.578 1.803.594a.75.75 0 0 1-.018 1.5c-.744-.003-1.312.161-1.693.55-.394.401-.572 1.011-.61 1.794a.75.75 0 0 1-1.5-.03c-.007-.729-.138-1.329-.514-1.736-.37-.4-.96-.578-1.793-.578a.75.75 0 0 1-.01-1.5c.754-.01 1.352-.162 1.75-.547.394-.38.564-.97.567-1.763m.748 2.54a3 3 0 0 1-.51.508 3 3 0 0 1 .545.558 3 3 0 0 1 .514-.532 3 3 0 0 1-.549-.535zM8.556 4.997a.75.75 0 0 1 1.5.006c-.004 1.122.231 2.013.814 2.619.588.61 1.504.906 2.76.935a.75.75 0 0 1-.02 1.498c-1.149-.003-2.02.268-2.606.866-.6.613-.889 1.536-.948 2.728a.751.751 0 0 1-1.5-.03c-.01-1.115-.23-2.028-.806-2.652-.569-.617-1.47-.912-2.749-.912a.75.75 0 0 1-.012-1.5C6.145 8.54 7.054 8.29 7.664 7.7c.606-.585.888-1.484.892-2.702zm.747 3.043a3.9 3.9 0 0 1-1.255 1.249 3.8 3.8 0 0 1 1.303 1.336q.253-.419.582-.754.307-.315.683-.556A3.9 3.9 0 0 1 9.303 8.04" clip-rule="evenodd" fill="#333333"></path></svg>